<svg width="208" height="240" viewBox="0 0 208 240" fill="none" xmlns="http://www.w3.org/2000/svg">
<path d="M0.3125 4.6552C0.3125 3.62926 1.67298 3.26862 2.18119 4.15984L7.15565 12.8833C7.24072 13.0325 7.28594 13.2011 7.28694 13.3728L8.40283 204.968C8.40858 205.954 7.13378 206.352 6.57721 205.538L0.486855 196.625C0.373268 196.459 0.3125 196.262 0.3125 196.061V4.6552Z" fill="#D9D9D9" style="fill:#D9D9D9;fill:color(display-p3 0.8510 0.8510 0.8510);fill-opacity:1;"/>
<path d="M0.3125 212.002C0.3125 211.066 1.48321 210.643 2.08149 211.362L8.19087 218.712C8.34015 218.891 8.42188 219.117 8.42188 219.351V237.752C8.42188 238.604 7.42388 239.066 6.77436 238.514L0.664981 233.323C0.441374 233.133 0.3125 232.854 0.3125 232.561V212.002Z" fill="#D9D9D9" style="fill:#D9D9D9;fill:color(display-p3 0.8510 0.8510 0.8510);fill-opacity:1;"/>
<path d="M137.109 5.06729C137.109 4.01505 138.526 3.6766 139.001 4.61514L141.241 9.03422C141.312 9.1728 141.349 9.32583 141.349 9.48118L142.02 139.073C142.026 140.087 140.692 140.464 140.166 139.598L137.255 134.805C137.16 134.649 137.109 134.469 137.109 134.286V5.06729Z" fill="#D9D9D9" style="fill:#D9D9D9;fill:color(display-p3 0.8510 0.8510 0.8510);fill-opacity:1;"/>
<path d="M137.109 146.403C137.109 145.438 138.34 145.033 138.914 145.809L141.843 149.773C141.97 149.945 142.039 150.154 142.039 150.368V162.008C142.039 162.888 140.984 163.339 140.348 162.731L137.418 159.931C137.221 159.742 137.109 159.481 137.109 159.208V146.403Z" fill="#D9D9D9" style="fill:#D9D9D9;fill:color(display-p3 0.8510 0.8510 0.8510);fill-opacity:1;"/>
<path d="M192.703 2.77758C192.703 1.97364 193.604 1.49835 194.267 1.952L196.506 3.48223C196.779 3.66859 196.942 3.97755 196.942 4.30781V83.5703C196.942 84.1226 196.494 84.5703 195.942 84.5703H193.703C193.151 84.5703 192.703 84.1226 192.703 83.5703V2.77758Z" fill="#D9D9D9" style="fill:#D9D9D9;fill:color(display-p3 0.8510 0.8510 0.8510);fill-opacity:1;"/>
<path d="M203.195 2.73938C203.195 1.9431 204.081 1.46623 204.746 1.90437L206.984 3.37969C207.265 3.5647 207.434 3.87844 207.434 4.21469V80.5667C207.434 81.119 206.986 81.5667 206.434 81.5667H204.195C203.643 81.5667 203.195 81.119 203.195 80.5667V2.73938Z" fill="#D9D9D9" style="fill:#D9D9D9;fill:color(display-p3 0.8510 0.8510 0.8510);fill-opacity:1;"/>
</svg>
